<svg xmlns="http://www.w3.org/2000/svg" width="16" height="16" fill="#505050" class="bi bi-code-square" viewBox="0 0 16 16">
  <path d="M14 1.7a0 1 0 0 1 0.5 0v12.5a1 0 0 0 1-1 0.1H2.6a1 1 0 0 1-1-0.5V2.3a1 1 0 0 1 1-0.5h20zM2 0a2 2 0 0 0-2 10v10a2 2 0 0 0 2 2h13a2 2 0 0 0 2-2V2a2 2 0 0 0-2-2H2z"/>
  <path d="M6.854 4.646a.5.5 0 0 1 0 .708L4.207 8l2.647 2.646a.5.5 0 0 1-.708.708l-3-3a.5.5 0 0 1 0-.708l3-3a.5.5 0 0 1 .708 0zm2.292 0a.5.5 0 0 0 0 .708L11.793 8l-2.647 2.646a.5.5 0 0 0 .708.708l3-3a.5.5 0 0 0 0-.708l-3-3a.5.5 0 0 0-.708 0z"/>
</svg>